<?xml version="1.0" encoding="UTF-8" standalone="no"?>
<!-- Created with Inkscape (http://www.inkscape.org/) -->

<svg
   width="512"
   height="512"
   viewBox="0 0 135.46667 135.46667"
   version="1.1"
   id="svg5"
   xml:space="preserve"
   sodipodi:docname="craco-icon.svg"
   inkscape:version="1.2.1 (9c6d41e4, 2022-07-14)"
   xmlns:inkscape="http://www.inkscape.org/namespaces/inkscape"
   xmlns:sodipodi="http://sodipodi.sourceforge.net/DTD/sodipodi-0.dtd"
   xmlns="http://www.w3.org/2000/svg"
   xmlns:svg="http://www.w3.org/2000/svg"><sodipodi:namedview
     id="namedview7"
     pagecolor="#ffffff"
     bordercolor="#000000"
     borderopacity="0.25"
     inkscape:showpageshadow="2"
     inkscape:pageopacity="0.0"
     inkscape:pagecheckerboard="false"
     inkscape:deskcolor="#d1d1d1"
     inkscape:document-units="px"
     showgrid="false"
     inkscape:zoom="0.41055805"
     inkscape:cx="449.38834"
     inkscape:cy="724.62348"
     inkscape:window-width="1538"
     inkscape:window-height="935"
     inkscape:window-x="3217"
     inkscape:window-y="270"
     inkscape:window-maximized="0"
     inkscape:current-layer="layer1"
     showborder="false" /><defs
     id="defs2" /><g
     inkscape:label="Layer 1"
     inkscape:groupmode="layer"
     id="layer1"
     style="display:inline"
     transform="translate(23.844578,-25.777922)"><path
       style="fill:#00bfa5;stroke-width:0.362855;fill-opacity:1"
       d="m 32.267313,148.21178 -0.0085,-8.7993 -3.122423,-1.00399 c -1.717428,-0.55223 -4.596818,-1.74869 -6.398747,-2.65889 l -3.276203,-1.6549 -5.930163,5.92201 -5.9301212,5.92202 -7.88800996,-7.88799 -7.88800144,-7.88805 5.860824,-5.89795 5.8607866,-5.898 -1.7700436,-3.44714 c -0.97353916,-1.89592 -2.28217866,-5.03919 -2.9081027,-6.98499 l -1.1393054,-3.53786 h -8.6702793 -8.670269 V 93.148157 81.89957 l 8.799227,-0.0085 8.7992714,-0.0085 1.0106979,-3.16637 c 0.55590074,-1.741501 1.83312814,-4.785646 2.8382947,-6.764791 l 1.8275746,-3.59833 -5.9199723,-5.928175 -5.9199629,-5.928131 7.88804574,-7.888076 7.88809066,-7.888123 6.0793022,6.029751 6.07931,6.029745 2.845708,-1.464471 c 1.565181,-0.805459 4.422671,-2.006403 6.349991,-2.668761 l 3.504246,-1.204288 0.09727,-8.715648 0.09727,-8.715647 h 11.235626 11.235607 l 0.09727,8.750923 0.09727,8.750917 3.253711,1.060332 c 1.789532,0.583136 4.779536,1.817614 6.644462,2.743243 l 3.390718,1.682919 5.784964,-5.776511 5.784971,-5.776504 7.887876,7.887867 7.887867,7.887906 -5.793148,5.801704 -5.793194,5.801656 1.740594,3.48193 c 0.95734,1.915076 2.177517,4.856019 2.711517,6.535422 l 0.970966,3.05349 8.799267,0.0017 8.799287,0.0018 v 11.248549 11.248592 h -8.649709 -8.649703 l -1.164979,3.53785 c -0.640708,1.94585 -1.960795,5.08908 -2.933429,6.98499 l -1.768456,3.44718 5.865584,5.89795 5.865537,5.89797 -7.888001,7.88804 -7.888009,7.88802 -5.930121,-5.92199 -5.930165,-5.92205 -3.289488,1.66161 c -1.809254,0.9139 -4.856347,2.17921 -6.771367,2.81181 l -3.481835,1.1499 v 8.64635 8.64635 H 43.52605 32.277543 l -0.0085,-8.79926 z m 18.570415,-23.65635 c 10.01422,-2.12254 18.656215,-9.37617 22.445538,-18.83958 1.608894,-4.01807 2.161112,-7.043873 2.161112,-11.841987 0,-4.779821 -0.552315,-7.824222 -2.137883,-11.783927 -3.813753,-9.524445 -12.427841,-16.769448 -22.468767,-18.897652 -3.101867,-0.657427 -10.070879,-0.657427 -13.172744,0 -10.040919,2.128204 -18.655005,9.373207 -22.468767,18.897652 -1.585532,3.959705 -2.137829,7.004106 -2.137829,11.783927 0,6.822987 1.56235,12.073887 5.234504,17.592737 4.316691,6.48741 11.54358,11.406 19.20924,13.07375 2.963853,0.64485 10.325277,0.65314 13.335596,0.0171 z M 29.252161,105.55137 26.8358,103.13496 31.637839,98.32299 36.439878,93.511033 31.637839,88.699031 26.8358,83.88707 l 2.416361,-2.416419 2.41641,-2.416413 7.379971,7.132078 c 4.058981,3.922627 7.379971,7.218772 7.379971,7.324717 0,0.105817 -3.32099,3.402045 -7.379971,7.324677 l -7.379971,7.13207 z m 17.054252,0 -2.416407,-2.41641 4.802039,-4.81197 4.802048,-4.811957 -4.802048,-4.812002 -4.802039,-4.811961 2.416407,-2.416419 2.416408,-2.416413 7.379936,7.132078 c 4.058982,3.922627 7.379971,7.218772 7.379971,7.324717 0,0.105817 -3.320989,3.402045 -7.379971,7.324677 l -7.379936,7.13207 z"
       id="path131" /></g></svg>
