<?xml version="1.0" encoding="UTF-8" standalone="no"?>
<!-- Created with Inkscape (http://www.inkscape.org/) -->

<svg
   width="512"
   height="512"
   viewBox="0 0 135.46667 135.46667"
   version="1.1"
   id="svg5"
   xml:space="preserve"
   sodipodi:docname="craco-icon.svg"
   inkscape:version="1.2.1 (9c6d41e4, 2022-07-14)"
   xmlns:inkscape="http://www.inkscape.org/namespaces/inkscape"
   xmlns:sodipodi="http://sodipodi.sourceforge.net/DTD/sodipodi-0.dtd"
   xmlns="http://www.w3.org/2000/svg"
   xmlns:svg="http://www.w3.org/2000/svg"><sodipodi:namedview
     id="namedview7"
     pagecolor="#ffffff"
     bordercolor="#000000"
     borderopacity="0.25"
     inkscape:showpageshadow="2"
     inkscape:pageopacity="0.0"
     inkscape:pagecheckerboard="false"
     inkscape:deskcolor="#d1d1d1"
     inkscape:document-units="px"
     showgrid="false"
     inkscape:zoom="0.41055805"
     inkscape:cx="449.38834"
     inkscape:cy="724.62348"
     inkscape:window-width="1538"
     inkscape:window-height="935"
     inkscape:window-x="3216"
     inkscape:window-y="269"
     inkscape:window-maximized="0"
     inkscape:current-layer="layer1"
     showborder="false" /><defs
     id="defs2" /><g
     inkscape:label="Layer 1"
     inkscape:groupmode="layer"
     id="layer1"
     style="display:inline"
     transform="translate(23.844578,-25.777922)"><path
       style="fill:#00bfa5;fill-opacity:1;stroke-width:0.338665"
       d="m 33.042034,144.5651 -0.0079,-8.21268 -2.91426,-0.93706 c -1.602932,-0.51542 -4.290363,-1.63211 -5.972163,-2.48163 l -3.057789,-1.54459 -5.534818,5.52722 -5.53478,5.52723 -7.3621408,-7.36212 -7.3621334,-7.36221 5.47010144,-5.50475 5.47006656,-5.50481 -1.6520403,-3.21733 c -0.908655,-1.76953 -2.1300516,-4.70326 -2.7142474,-6.51934 L 0.80659748,103.67102 H -7.2856615 -15.377911 V 93.172331 82.673637 l 8.2126095,-0.0079 8.2126524,-0.0079 0.9433178,-2.955282 C 2.5095095,78.077189 3.7015882,75.235984 4.6397434,73.38878 l 1.705736,-3.358446 -5.52530659,-5.532969 -5.52529771,-5.532929 7.3621748,-7.362213 7.3622171,-7.362258 5.674015,5.627775 5.674021,5.627769 2.655994,-1.366842 c 1.460835,-0.751762 4.127826,-1.872645 5.926658,-2.490846 l 3.270628,-1.124004 0.09079,-8.134614 0.09079,-8.134614 h 10.486584 10.486565 l 0.09079,8.167538 0.09079,8.167532 3.036795,0.989645 c 1.67023,0.544262 4.460901,1.696442 6.201497,2.560363 l 3.164671,1.570726 5.399298,-5.391416 5.399305,-5.391411 7.362016,7.362018 7.362008,7.362055 -5.406936,5.41493 -5.406981,5.414886 1.624555,3.249805 c 0.893517,1.787406 2.032349,4.53229 2.530749,6.099734 l 0.906234,2.849927 8.212648,0.0016 8.212669,0.0017 v 10.498659 10.4987 h -8.073063 -8.073054 l -1.087314,3.302 c -0.597995,1.81612 -1.830075,4.74981 -2.737867,6.51933 l -1.650559,3.21736 5.474545,5.50477 5.4745,5.50476 -7.362134,7.36219 -7.362139,7.36216 -5.53478,-5.5272 -5.534819,-5.52725 -3.070188,1.55084 c -1.688638,0.85296 -4.532591,2.03393 -6.319942,2.62436 l -3.249712,1.07324 v 8.06994 8.06993 H 43.550188 33.051582 l -0.0079,-8.21266 z m 17.332385,-22.07928 c 9.346604,-1.98104 17.412463,-8.75111 20.949165,-17.58363 1.501635,-3.75021 2.017038,-6.574288 2.017038,-11.052533 0,-4.461171 -0.515494,-7.302616 -1.995357,-10.998345 -3.559503,-8.889493 -11.599317,-15.651503 -20.970846,-17.637829 -2.895076,-0.6136 -9.399486,-0.6136 -12.294559,0 -9.371524,1.986326 -17.411336,8.748336 -20.970846,17.637829 -1.479829,3.695729 -1.995307,6.537174 -1.995307,10.998345 0,6.368133 1.458193,11.268973 4.885537,16.419913 4.02891,6.05492 10.774005,10.64561 17.92862,12.20218 2.766263,0.60185 9.636924,0.60959 12.446555,0.016 z m -20.146526,-17.73714 -2.25527,-2.25533 4.481902,-4.491169 4.481903,-4.491165 -4.481903,-4.491208 -4.481902,-4.491169 2.25527,-2.255327 2.255315,-2.255321 6.887972,6.656613 c 3.788382,3.661123 6.887971,6.737529 6.887971,6.836412 0,0.09876 -3.099589,3.175245 -6.887971,6.836374 l -6.887972,6.65661 z m 15.917298,0 -2.255312,-2.25533 4.481902,-4.491169 4.481911,-4.491165 -4.481911,-4.491208 -4.481902,-4.491169 2.255312,-2.255327 2.255315,-2.255321 6.88794,6.656613 c 3.788382,3.661123 6.887972,6.737529 6.887972,6.836412 0,0.09876 -3.09959,3.175245 -6.887972,6.836374 l -6.88794,6.65661 z"
       id="path131" /></g></svg>
