<svg xmlns="http://www.w3.org/2000/svg" xmlns:xlink="http://www.w3.org/1999/xlink" width="720" zoomAndPan="magnify" viewBox="0 0 540 191.999996" height="256" preserveAspectRatio="xMidYMid meet" version="1.0"><defs><g/><clipPath id="f0040e3203"><path d="M 40.617188 43.972656 L 144.867188 43.972656 L 144.867188 148.222656 L 40.617188 148.222656 Z M 40.617188 43.972656 " clip-rule="nonzero"/></clipPath></defs><g clip-path="url(#f0040e3203)"><path fill="#000000" d="M 40.617188 61.347656 C 40.617188 51.75 48.398438 43.972656 57.992188 43.972656 L 127.492188 43.972656 C 132.101562 43.972656 136.519531 45.800781 139.777344 49.0625 C 143.039062 52.320312 144.867188 56.738281 144.867188 61.347656 L 144.867188 130.847656 C 144.867188 140.441406 137.089844 148.222656 127.492188 148.222656 L 57.992188 148.222656 C 48.398438 148.222656 40.617188 140.441406 40.617188 130.847656 Z M 40.617188 61.347656 " fill-opacity="1" fill-rule="evenodd"/></g><path stroke-linecap="butt" transform="matrix(0.407227, 0, 0, 0.407227, 40.61827, 43.971633)" fill="none" stroke-linejoin="round" d="M 56.006938 79.983335 C 56.016531 66.726739 66.759937 55.983332 80.016533 55.992925 L 176.016541 56.012109 C 182.376254 56.012109 188.486566 58.544484 192.985368 63.043285 C 197.484169 67.542086 200.006951 73.652399 200.006951 80.021704 L 199.987766 176.021712 C 199.987766 189.268716 189.234768 200.012122 175.987764 200.012122 L 79.987756 199.992937 C 66.73116 199.983345 55.987754 189.239939 55.987754 175.983343 Z M 56.006938 79.983335 " stroke="#ffffff" stroke-width="24" stroke-opacity="1" stroke-miterlimit="10"/><g fill="#ffffff" fill-opacity="1"><g transform="translate(159.164336, 78.299995)"><g><path d="M 9.40625 -22.296875 C 11.84375 -22.296875 13.953125 -21.84375 15.734375 -20.9375 C 17.515625 -20.03125 18.878906 -18.734375 19.828125 -17.046875 C 20.773438 -15.367188 21.25 -13.390625 21.25 -11.109375 C 21.25 -8.828125 20.773438 -6.847656 19.828125 -5.171875 C 18.878906 -3.492188 17.515625 -2.210938 15.734375 -1.328125 C 13.953125 -0.441406 11.84375 0 9.40625 0 L 2.46875 0 L 2.46875 -22.296875 Z M 9.40625 -2.40625 C 12.289062 -2.40625 14.488281 -3.164062 16 -4.6875 C 17.507812 -6.207031 18.265625 -8.347656 18.265625 -11.109375 C 18.265625 -13.878906 17.503906 -16.039062 15.984375 -17.59375 C 14.460938 -19.15625 12.269531 -19.9375 9.40625 -19.9375 L 5.375 -19.9375 L 5.375 -2.40625 Z M 9.40625 -2.40625 "/></g></g></g><g fill="#ffffff" fill-opacity="1"><g transform="translate(181.78278, 78.299995)"><g><path d="M 3.96875 -20.390625 C 3.414062 -20.390625 2.945312 -20.578125 2.5625 -20.953125 C 2.175781 -21.335938 1.984375 -21.8125 1.984375 -22.375 C 1.984375 -22.925781 2.175781 -23.394531 2.5625 -23.78125 C 2.945312 -24.164062 3.414062 -24.359375 3.96875 -24.359375 C 4.5 -24.359375 4.953125 -24.164062 5.328125 -23.78125 C 5.703125 -23.394531 5.890625 -22.925781 5.890625 -22.375 C 5.890625 -21.8125 5.703125 -21.335938 5.328125 -20.953125 C 4.953125 -20.578125 4.5 -20.390625 3.96875 -20.390625 Z M 5.375 -17.53125 L 5.375 0 L 2.46875 0 L 2.46875 -17.53125 Z M 5.375 -17.53125 "/></g></g></g><g fill="#ffffff" fill-opacity="1"><g transform="translate(189.652847, 78.299995)"><g><path d="M 5.375 -23.6875 L 5.375 0 L 2.46875 0 L 2.46875 -23.6875 Z M 5.375 -23.6875 "/></g></g></g><g fill="#ffffff" fill-opacity="1"><g transform="translate(197.522915, 78.299995)"><g><path d="M 1.375 -8.828125 C 1.375 -10.617188 1.734375 -12.191406 2.453125 -13.546875 C 3.179688 -14.898438 4.179688 -15.953125 5.453125 -16.703125 C 6.722656 -17.453125 8.140625 -17.828125 9.703125 -17.828125 C 11.234375 -17.828125 12.5625 -17.492188 13.6875 -16.828125 C 14.820312 -16.171875 15.664062 -15.34375 16.21875 -14.34375 L 16.21875 -17.53125 L 19.171875 -17.53125 L 19.171875 0 L 16.21875 0 L 16.21875 -3.265625 C 15.644531 -2.242188 14.785156 -1.394531 13.640625 -0.71875 C 12.503906 -0.0507812 11.175781 0.28125 9.65625 0.28125 C 8.101562 0.28125 6.695312 -0.0976562 5.4375 -0.859375 C 4.175781 -1.628906 3.179688 -2.707031 2.453125 -4.09375 C 1.734375 -5.476562 1.375 -7.054688 1.375 -8.828125 Z M 16.21875 -8.796875 C 16.21875 -10.117188 15.953125 -11.269531 15.421875 -12.25 C 14.890625 -13.238281 14.171875 -13.992188 13.265625 -14.515625 C 12.359375 -15.035156 11.359375 -15.296875 10.265625 -15.296875 C 9.179688 -15.296875 8.191406 -15.039062 7.296875 -14.53125 C 6.398438 -14.019531 5.6875 -13.269531 5.15625 -12.28125 C 4.625 -11.300781 4.359375 -10.148438 4.359375 -8.828125 C 4.359375 -7.484375 4.625 -6.316406 5.15625 -5.328125 C 5.6875 -4.335938 6.398438 -3.578125 7.296875 -3.046875 C 8.191406 -2.523438 9.179688 -2.265625 10.265625 -2.265625 C 11.359375 -2.265625 12.359375 -2.523438 13.265625 -3.046875 C 14.171875 -3.578125 14.890625 -4.335938 15.421875 -5.328125 C 15.953125 -6.316406 16.21875 -7.472656 16.21875 -8.796875 Z M 16.21875 -8.796875 "/></g></g></g><g fill="#ffffff" fill-opacity="1"><g transform="translate(219.149603, 78.299995)"><g><path d="M 11.015625 -17.859375 C 13.140625 -17.859375 14.863281 -17.210938 16.1875 -15.921875 C 17.507812 -14.628906 18.171875 -12.769531 18.171875 -10.34375 L 18.171875 0 L 15.296875 0 L 15.296875 -9.921875 C 15.296875 -11.671875 14.859375 -13.007812 13.984375 -13.9375 C 13.109375 -14.863281 11.914062 -15.328125 10.40625 -15.328125 C 8.863281 -15.328125 7.640625 -14.847656 6.734375 -13.890625 C 5.828125 -12.929688 5.375 -11.535156 5.375 -9.703125 L 5.375 0 L 2.46875 0 L 2.46875 -17.53125 L 5.375 -17.53125 L 5.375 -15.046875 C 5.945312 -15.941406 6.726562 -16.632812 7.71875 -17.125 C 8.71875 -17.613281 9.816406 -17.859375 11.015625 -17.859375 Z M 11.015625 -17.859375 "/></g></g></g><g fill="#ffffff" fill-opacity="1"><g transform="translate(239.62457, 78.299995)"><g/></g></g><g fill="#ffffff" fill-opacity="1"><g transform="translate(248.166474, 78.299995)"><g><path d="M 20 0 L 17.09375 0 L 5.375 -17.765625 L 5.375 0 L 2.46875 0 L 2.46875 -22.34375 L 5.375 -22.34375 L 17.09375 -4.609375 L 17.09375 -22.34375 L 20 -22.34375 Z M 20 0 "/></g></g></g><g fill="#ffffff" fill-opacity="1"><g transform="translate(270.656939, 78.299995)"><g><path d="M 1.375 -8.828125 C 1.375 -10.617188 1.734375 -12.191406 2.453125 -13.546875 C 3.179688 -14.898438 4.179688 -15.953125 5.453125 -16.703125 C 6.722656 -17.453125 8.140625 -17.828125 9.703125 -17.828125 C 11.234375 -17.828125 12.5625 -17.492188 13.6875 -16.828125 C 14.820312 -16.171875 15.664062 -15.34375 16.21875 -14.34375 L 16.21875 -17.53125 L 19.171875 -17.53125 L 19.171875 0 L 16.21875 0 L 16.21875 -3.265625 C 15.644531 -2.242188 14.785156 -1.394531 13.640625 -0.71875 C 12.503906 -0.0507812 11.175781 0.28125 9.65625 0.28125 C 8.101562 0.28125 6.695312 -0.0976562 5.4375 -0.859375 C 4.175781 -1.628906 3.179688 -2.707031 2.453125 -4.09375 C 1.734375 -5.476562 1.375 -7.054688 1.375 -8.828125 Z M 16.21875 -8.796875 C 16.21875 -10.117188 15.953125 -11.269531 15.421875 -12.25 C 14.890625 -13.238281 14.171875 -13.992188 13.265625 -14.515625 C 12.359375 -15.035156 11.359375 -15.296875 10.265625 -15.296875 C 9.179688 -15.296875 8.191406 -15.039062 7.296875 -14.53125 C 6.398438 -14.019531 5.6875 -13.269531 5.15625 -12.28125 C 4.625 -11.300781 4.359375 -10.148438 4.359375 -8.828125 C 4.359375 -7.484375 4.625 -6.316406 5.15625 -5.328125 C 5.6875 -4.335938 6.398438 -3.578125 7.296875 -3.046875 C 8.191406 -2.523438 9.179688 -2.265625 10.265625 -2.265625 C 11.359375 -2.265625 12.359375 -2.523438 13.265625 -3.046875 C 14.171875 -3.578125 14.890625 -4.335938 15.421875 -5.328125 C 15.953125 -6.316406 16.21875 -7.472656 16.21875 -8.796875 Z M 16.21875 -8.796875 "/></g></g></g><g fill="#ffffff" fill-opacity="1"><g transform="translate(292.283628, 78.299995)"><g><path d="M 3.96875 -20.390625 C 3.414062 -20.390625 2.945312 -20.578125 2.5625 -20.953125 C 2.175781 -21.335938 1.984375 -21.8125 1.984375 -22.375 C 1.984375 -22.925781 2.175781 -23.394531 2.5625 -23.78125 C 2.945312 -24.164062 3.414062 -24.359375 3.96875 -24.359375 C 4.5 -24.359375 4.953125 -24.164062 5.328125 -23.78125 C 5.703125 -23.394531 5.890625 -22.925781 5.890625 -22.375 C 5.890625 -21.8125 5.703125 -21.335938 5.328125 -20.953125 C 4.953125 -20.578125 4.5 -20.390625 3.96875 -20.390625 Z M 5.375 -17.53125 L 5.375 0 L 2.46875 0 L 2.46875 -17.53125 Z M 5.375 -17.53125 "/></g></g></g><g fill="#ffffff" fill-opacity="1"><g transform="translate(300.153695, 78.299995)"><g><path d="M 5.375 -14.6875 C 5.882812 -15.6875 6.613281 -16.460938 7.5625 -17.015625 C 8.507812 -17.578125 9.671875 -17.859375 11.046875 -17.859375 L 11.046875 -14.84375 L 10.265625 -14.84375 C 7.003906 -14.84375 5.375 -13.070312 5.375 -9.53125 L 5.375 0 L 2.46875 0 L 2.46875 -17.53125 L 5.375 -17.53125 Z M 5.375 -14.6875 "/></g></g></g><g fill="#ff00ff" fill-opacity="1"><g transform="translate(161.857304, 131.79999)"><g><path d="M 18.90625 0.34375 C 15.738281 0.34375 12.828125 -0.398438 10.171875 -1.890625 C 7.515625 -3.378906 5.410156 -5.441406 3.859375 -8.078125 C 2.304688 -10.722656 1.53125 -13.710938 1.53125 -17.046875 C 1.53125 -20.367188 2.304688 -23.347656 3.859375 -25.984375 C 5.410156 -28.628906 7.515625 -30.6875 10.171875 -32.15625 C 12.828125 -33.632812 15.738281 -34.375 18.90625 -34.375 C 22.113281 -34.375 25.035156 -33.632812 27.671875 -32.15625 C 30.304688 -30.6875 32.390625 -28.628906 33.921875 -25.984375 C 35.460938 -23.347656 36.234375 -20.367188 36.234375 -17.046875 C 36.234375 -13.710938 35.460938 -10.722656 33.921875 -8.078125 C 32.390625 -5.441406 30.296875 -3.378906 27.640625 -1.890625 C 24.984375 -0.398438 22.070312 0.34375 18.90625 0.34375 Z M 18.90625 -8.40625 C 21.3125 -8.40625 23.207031 -9.1875 24.59375 -10.75 C 25.988281 -12.320312 26.6875 -14.421875 26.6875 -17.046875 C 26.6875 -19.734375 25.988281 -21.851562 24.59375 -23.40625 C 23.207031 -24.957031 21.3125 -25.734375 18.90625 -25.734375 C 16.476562 -25.734375 14.578125 -24.957031 13.203125 -23.40625 C 11.828125 -21.851562 11.140625 -19.734375 11.140625 -17.046875 C 11.140625 -14.390625 11.828125 -12.285156 13.203125 -10.734375 C 14.578125 -9.179688 16.476562 -8.40625 18.90625 -8.40625 Z M 18.90625 -8.40625 "/></g></g></g><g fill="#ff00ff" fill-opacity="1"><g transform="translate(199.633242, 131.79999)"><g><path d="M 29.421875 -22.5625 C 29.421875 -20.507812 28.945312 -18.644531 28 -16.96875 C 27.0625 -15.289062 25.640625 -13.945312 23.734375 -12.9375 C 21.828125 -11.925781 19.5 -11.421875 16.75 -11.421875 L 12.09375 -11.421875 L 12.09375 0 L 2.6875 0 L 2.6875 -33.84375 L 16.75 -33.84375 C 19.46875 -33.84375 21.78125 -33.359375 23.6875 -32.390625 C 25.59375 -31.429688 27.023438 -30.101562 27.984375 -28.40625 C 28.941406 -26.71875 29.421875 -24.769531 29.421875 -22.5625 Z M 15.84375 -18.90625 C 18.5 -18.90625 19.828125 -20.125 19.828125 -22.5625 C 19.828125 -25.019531 18.5 -26.25 15.84375 -26.25 L 12.09375 -26.25 L 12.09375 -18.90625 Z M 15.84375 -18.90625 "/></g></g></g><g fill="#ff00ff" fill-opacity="1"><g transform="translate(230.16119, 131.79999)"><g><path d="M 12.09375 -26.296875 L 12.09375 -20.78125 L 22.890625 -20.78125 L 22.890625 -13.625 L 12.09375 -13.625 L 12.09375 -7.53125 L 24.34375 -7.53125 L 24.34375 0 L 2.6875 0 L 2.6875 -33.84375 L 24.34375 -33.84375 L 24.34375 -26.296875 Z M 12.09375 -26.296875 "/></g></g></g><g fill="#ff00ff" fill-opacity="1"><g transform="translate(256.465148, 131.79999)"><g><path d="M 34.03125 0 L 24.625 0 L 12.09375 -18.90625 L 12.09375 0 L 2.6875 0 L 2.6875 -33.84375 L 12.09375 -33.84375 L 24.625 -14.6875 L 24.625 -33.84375 L 34.03125 -33.84375 Z M 34.03125 0 "/></g></g></g><g fill="#ff00ff" fill-opacity="1"><g transform="translate(293.185082, 131.79999)"><g/></g></g><g fill="#ff00ff" fill-opacity="1"><g transform="translate(302.353069, 131.79999)"><g><path d="M 15.453125 0.34375 C 11.515625 0.34375 8.28125 -0.59375 5.75 -2.46875 C 3.226562 -4.34375 1.875 -7.023438 1.6875 -10.515625 L 11.71875 -10.515625 C 11.8125 -9.328125 12.160156 -8.460938 12.765625 -7.921875 C 13.378906 -7.378906 14.164062 -7.109375 15.125 -7.109375 C 15.988281 -7.109375 16.695312 -7.320312 17.25 -7.75 C 17.8125 -8.1875 18.09375 -8.785156 18.09375 -9.546875 C 18.09375 -10.546875 17.628906 -11.316406 16.703125 -11.859375 C 15.773438 -12.398438 14.269531 -13.007812 12.1875 -13.6875 C 9.976562 -14.414062 8.191406 -15.125 6.828125 -15.8125 C 5.472656 -16.5 4.289062 -17.503906 3.28125 -18.828125 C 2.28125 -20.160156 1.78125 -21.898438 1.78125 -24.046875 C 1.78125 -26.222656 2.320312 -28.085938 3.40625 -29.640625 C 4.5 -31.191406 6.003906 -32.367188 7.921875 -33.171875 C 9.835938 -33.972656 12.015625 -34.375 14.453125 -34.375 C 18.390625 -34.375 21.53125 -33.453125 23.875 -31.609375 C 26.226562 -29.765625 27.484375 -27.179688 27.640625 -23.859375 L 17.421875 -23.859375 C 17.390625 -24.878906 17.078125 -25.644531 16.484375 -26.15625 C 15.890625 -26.664062 15.128906 -26.921875 14.203125 -26.921875 C 13.503906 -26.921875 12.929688 -26.710938 12.484375 -26.296875 C 12.035156 -25.890625 11.8125 -25.300781 11.8125 -24.53125 C 11.8125 -23.882812 12.054688 -23.328125 12.546875 -22.859375 C 13.046875 -22.398438 13.660156 -22.003906 14.390625 -21.671875 C 15.128906 -21.335938 16.21875 -20.914062 17.65625 -20.40625 C 19.800781 -19.664062 21.570312 -18.9375 22.96875 -18.21875 C 24.363281 -17.5 25.5625 -16.488281 26.5625 -15.1875 C 27.570312 -13.894531 28.078125 -12.253906 28.078125 -10.265625 C 28.078125 -8.253906 27.570312 -6.445312 26.5625 -4.84375 C 25.5625 -3.25 24.109375 -1.984375 22.203125 -1.046875 C 20.296875 -0.117188 18.046875 0.34375 15.453125 0.34375 Z M 15.453125 0.34375 "/></g></g></g><g fill="#ff00ff" fill-opacity="1"><g transform="translate(332.113016, 131.79999)"><g><path d="M 18.90625 0.34375 C 15.738281 0.34375 12.828125 -0.398438 10.171875 -1.890625 C 7.515625 -3.378906 5.410156 -5.441406 3.859375 -8.078125 C 2.304688 -10.722656 1.53125 -13.710938 1.53125 -17.046875 C 1.53125 -20.367188 2.304688 -23.347656 3.859375 -25.984375 C 5.410156 -28.628906 7.515625 -30.6875 10.171875 -32.15625 C 12.828125 -33.632812 15.738281 -34.375 18.90625 -34.375 C 22.113281 -34.375 25.035156 -33.632812 27.671875 -32.15625 C 30.304688 -30.6875 32.390625 -28.628906 33.921875 -25.984375 C 35.460938 -23.347656 36.234375 -20.367188 36.234375 -17.046875 C 36.234375 -13.710938 35.460938 -10.722656 33.921875 -8.078125 C 32.390625 -5.441406 30.296875 -3.378906 27.640625 -1.890625 C 24.984375 -0.398438 22.070312 0.34375 18.90625 0.34375 Z M 18.90625 -8.40625 C 21.3125 -8.40625 23.207031 -9.1875 24.59375 -10.75 C 25.988281 -12.320312 26.6875 -14.421875 26.6875 -17.046875 C 26.6875 -19.734375 25.988281 -21.851562 24.59375 -23.40625 C 23.207031 -24.957031 21.3125 -25.734375 18.90625 -25.734375 C 16.476562 -25.734375 14.578125 -24.957031 13.203125 -23.40625 C 11.828125 -21.851562 11.140625 -19.734375 11.140625 -17.046875 C 11.140625 -14.390625 11.828125 -12.285156 13.203125 -10.734375 C 14.578125 -9.179688 16.476562 -8.40625 18.90625 -8.40625 Z M 18.90625 -8.40625 "/></g></g></g><g fill="#ff00ff" fill-opacity="1"><g transform="translate(369.888954, 131.79999)"><g><path d="M 11.90625 -33.84375 L 11.90625 -14.203125 C 11.90625 -12.378906 12.328125 -10.972656 13.171875 -9.984375 C 14.023438 -8.992188 15.316406 -8.5 17.046875 -8.5 C 18.765625 -8.5 20.0625 -9 20.9375 -10 C 21.820312 -11.007812 22.265625 -12.410156 22.265625 -14.203125 L 22.265625 -33.84375 L 31.6875 -33.84375 L 31.6875 -14.203125 C 31.6875 -11.097656 31.03125 -8.445312 29.71875 -6.25 C 28.40625 -4.0625 26.617188 -2.414062 24.359375 -1.3125 C 22.097656 -0.207031 19.59375 0.34375 16.84375 0.34375 C 14.09375 0.34375 11.632812 -0.207031 9.46875 -1.3125 C 7.3125 -2.414062 5.617188 -4.054688 4.390625 -6.234375 C 3.160156 -8.410156 2.546875 -11.066406 2.546875 -14.203125 L 2.546875 -33.84375 Z M 11.90625 -33.84375 "/></g></g></g><g fill="#ff00ff" fill-opacity="1"><g transform="translate(404.0649, 131.79999)"><g><path d="M 19.828125 0 L 13.109375 -12.484375 L 12.09375 -12.484375 L 12.09375 0 L 2.6875 0 L 2.6875 -33.84375 L 17.515625 -33.84375 C 20.234375 -33.84375 22.535156 -33.367188 24.421875 -32.421875 C 26.316406 -31.484375 27.742188 -30.1875 28.703125 -28.53125 C 29.660156 -26.882812 30.140625 -25.035156 30.140625 -22.984375 C 30.140625 -20.679688 29.507812 -18.65625 28.25 -16.90625 C 26.988281 -15.164062 25.140625 -13.929688 22.703125 -13.203125 L 30.34375 0 Z M 12.09375 -18.90625 L 16.75 -18.90625 C 18.03125 -18.90625 18.988281 -19.207031 19.625 -19.8125 C 20.269531 -20.425781 20.59375 -21.3125 20.59375 -22.46875 C 20.59375 -23.550781 20.265625 -24.40625 19.609375 -25.03125 C 18.953125 -25.65625 18 -25.96875 16.75 -25.96875 L 12.09375 -25.96875 Z M 12.09375 -18.90625 "/></g></g></g><g fill="#ff00ff" fill-opacity="1"><g transform="translate(435.792842, 131.79999)"><g><path d="M 1.53125 -16.984375 C 1.53125 -20.316406 2.226562 -23.285156 3.625 -25.890625 C 5.019531 -28.503906 6.992188 -30.535156 9.546875 -31.984375 C 12.109375 -33.441406 15.054688 -34.171875 18.390625 -34.171875 C 22.609375 -34.171875 26.15625 -33.039062 29.03125 -30.78125 C 31.914062 -28.53125 33.773438 -25.46875 34.609375 -21.59375 L 24.484375 -21.59375 C 23.867188 -22.875 23.023438 -23.847656 21.953125 -24.515625 C 20.890625 -25.191406 19.648438 -25.53125 18.234375 -25.53125 C 16.054688 -25.53125 14.320312 -24.753906 13.03125 -23.203125 C 11.738281 -21.648438 11.09375 -19.578125 11.09375 -16.984375 C 11.09375 -14.367188 11.738281 -12.285156 13.03125 -10.734375 C 14.320312 -9.179688 16.054688 -8.40625 18.234375 -8.40625 C 19.648438 -8.40625 20.890625 -8.738281 21.953125 -9.40625 C 23.023438 -10.082031 23.867188 -11.0625 24.484375 -12.34375 L 34.609375 -12.34375 C 33.773438 -8.46875 31.914062 -5.398438 29.03125 -3.140625 C 26.15625 -0.890625 22.609375 0.234375 18.390625 0.234375 C 15.054688 0.234375 12.109375 -0.488281 9.546875 -1.9375 C 6.992188 -3.394531 5.019531 -5.425781 3.625 -8.03125 C 2.226562 -10.644531 1.53125 -13.628906 1.53125 -16.984375 Z M 1.53125 -16.984375 "/></g></g></g><g fill="#ff00ff" fill-opacity="1"><g transform="translate(472.176789, 131.79999)"><g><path d="M 12.09375 -26.296875 L 12.09375 -20.78125 L 22.890625 -20.78125 L 22.890625 -13.625 L 12.09375 -13.625 L 12.09375 -7.53125 L 24.34375 -7.53125 L 24.34375 0 L 2.6875 0 L 2.6875 -33.84375 L 24.34375 -33.84375 L 24.34375 -26.296875 Z M 12.09375 -26.296875 "/></g></g></g><g fill="#00ffff" fill-opacity="1"><g transform="translate(160.057304, 131.79999)"><g><path d="M 18.90625 0.34375 C 15.738281 0.34375 12.828125 -0.398438 10.171875 -1.890625 C 7.515625 -3.378906 5.410156 -5.441406 3.859375 -8.078125 C 2.304688 -10.722656 1.53125 -13.710938 1.53125 -17.046875 C 1.53125 -20.367188 2.304688 -23.347656 3.859375 -25.984375 C 5.410156 -28.628906 7.515625 -30.6875 10.171875 -32.15625 C 12.828125 -33.632812 15.738281 -34.375 18.90625 -34.375 C 22.113281 -34.375 25.035156 -33.632812 27.671875 -32.15625 C 30.304688 -30.6875 32.390625 -28.628906 33.921875 -25.984375 C 35.460938 -23.347656 36.234375 -20.367188 36.234375 -17.046875 C 36.234375 -13.710938 35.460938 -10.722656 33.921875 -8.078125 C 32.390625 -5.441406 30.296875 -3.378906 27.640625 -1.890625 C 24.984375 -0.398438 22.070312 0.34375 18.90625 0.34375 Z M 18.90625 -8.40625 C 21.3125 -8.40625 23.207031 -9.1875 24.59375 -10.75 C 25.988281 -12.320312 26.6875 -14.421875 26.6875 -17.046875 C 26.6875 -19.734375 25.988281 -21.851562 24.59375 -23.40625 C 23.207031 -24.957031 21.3125 -25.734375 18.90625 -25.734375 C 16.476562 -25.734375 14.578125 -24.957031 13.203125 -23.40625 C 11.828125 -21.851562 11.140625 -19.734375 11.140625 -17.046875 C 11.140625 -14.390625 11.828125 -12.285156 13.203125 -10.734375 C 14.578125 -9.179688 16.476562 -8.40625 18.90625 -8.40625 Z M 18.90625 -8.40625 "/></g></g></g><g fill="#00ffff" fill-opacity="1"><g transform="translate(197.833242, 131.79999)"><g><path d="M 29.421875 -22.5625 C 29.421875 -20.507812 28.945312 -18.644531 28 -16.96875 C 27.0625 -15.289062 25.640625 -13.945312 23.734375 -12.9375 C 21.828125 -11.925781 19.5 -11.421875 16.75 -11.421875 L 12.09375 -11.421875 L 12.09375 0 L 2.6875 0 L 2.6875 -33.84375 L 16.75 -33.84375 C 19.46875 -33.84375 21.78125 -33.359375 23.6875 -32.390625 C 25.59375 -31.429688 27.023438 -30.101562 27.984375 -28.40625 C 28.941406 -26.71875 29.421875 -24.769531 29.421875 -22.5625 Z M 15.84375 -18.90625 C 18.5 -18.90625 19.828125 -20.125 19.828125 -22.5625 C 19.828125 -25.019531 18.5 -26.25 15.84375 -26.25 L 12.09375 -26.25 L 12.09375 -18.90625 Z M 15.84375 -18.90625 "/></g></g></g><g fill="#00ffff" fill-opacity="1"><g transform="translate(228.361191, 131.79999)"><g><path d="M 12.09375 -26.296875 L 12.09375 -20.78125 L 22.890625 -20.78125 L 22.890625 -13.625 L 12.09375 -13.625 L 12.09375 -7.53125 L 24.34375 -7.53125 L 24.34375 0 L 2.6875 0 L 2.6875 -33.84375 L 24.34375 -33.84375 L 24.34375 -26.296875 Z M 12.09375 -26.296875 "/></g></g></g><g fill="#00ffff" fill-opacity="1"><g transform="translate(254.665148, 131.79999)"><g><path d="M 34.03125 0 L 24.625 0 L 12.09375 -18.90625 L 12.09375 0 L 2.6875 0 L 2.6875 -33.84375 L 12.09375 -33.84375 L 24.625 -14.6875 L 24.625 -33.84375 L 34.03125 -33.84375 Z M 34.03125 0 "/></g></g></g><g fill="#00ffff" fill-opacity="1"><g transform="translate(291.385082, 131.79999)"><g/></g></g><g fill="#00ffff" fill-opacity="1"><g transform="translate(300.553069, 131.79999)"><g><path d="M 15.453125 0.34375 C 11.515625 0.34375 8.28125 -0.59375 5.75 -2.46875 C 3.226562 -4.34375 1.875 -7.023438 1.6875 -10.515625 L 11.71875 -10.515625 C 11.8125 -9.328125 12.160156 -8.460938 12.765625 -7.921875 C 13.378906 -7.378906 14.164062 -7.109375 15.125 -7.109375 C 15.988281 -7.109375 16.695312 -7.320312 17.25 -7.75 C 17.8125 -8.1875 18.09375 -8.785156 18.09375 -9.546875 C 18.09375 -10.546875 17.628906 -11.316406 16.703125 -11.859375 C 15.773438 -12.398438 14.269531 -13.007812 12.1875 -13.6875 C 9.976562 -14.414062 8.191406 -15.125 6.828125 -15.8125 C 5.472656 -16.5 4.289062 -17.503906 3.28125 -18.828125 C 2.28125 -20.160156 1.78125 -21.898438 1.78125 -24.046875 C 1.78125 -26.222656 2.320312 -28.085938 3.40625 -29.640625 C 4.5 -31.191406 6.003906 -32.367188 7.921875 -33.171875 C 9.835938 -33.972656 12.015625 -34.375 14.453125 -34.375 C 18.390625 -34.375 21.53125 -33.453125 23.875 -31.609375 C 26.226562 -29.765625 27.484375 -27.179688 27.640625 -23.859375 L 17.421875 -23.859375 C 17.390625 -24.878906 17.078125 -25.644531 16.484375 -26.15625 C 15.890625 -26.664062 15.128906 -26.921875 14.203125 -26.921875 C 13.503906 -26.921875 12.929688 -26.710938 12.484375 -26.296875 C 12.035156 -25.890625 11.8125 -25.300781 11.8125 -24.53125 C 11.8125 -23.882812 12.054688 -23.328125 12.546875 -22.859375 C 13.046875 -22.398438 13.660156 -22.003906 14.390625 -21.671875 C 15.128906 -21.335938 16.21875 -20.914062 17.65625 -20.40625 C 19.800781 -19.664062 21.570312 -18.9375 22.96875 -18.21875 C 24.363281 -17.5 25.5625 -16.488281 26.5625 -15.1875 C 27.570312 -13.894531 28.078125 -12.253906 28.078125 -10.265625 C 28.078125 -8.253906 27.570312 -6.445312 26.5625 -4.84375 C 25.5625 -3.25 24.109375 -1.984375 22.203125 -1.046875 C 20.296875 -0.117188 18.046875 0.34375 15.453125 0.34375 Z M 15.453125 0.34375 "/></g></g></g><g fill="#00ffff" fill-opacity="1"><g transform="translate(330.313016, 131.79999)"><g><path d="M 18.90625 0.34375 C 15.738281 0.34375 12.828125 -0.398438 10.171875 -1.890625 C 7.515625 -3.378906 5.410156 -5.441406 3.859375 -8.078125 C 2.304688 -10.722656 1.53125 -13.710938 1.53125 -17.046875 C 1.53125 -20.367188 2.304688 -23.347656 3.859375 -25.984375 C 5.410156 -28.628906 7.515625 -30.6875 10.171875 -32.15625 C 12.828125 -33.632812 15.738281 -34.375 18.90625 -34.375 C 22.113281 -34.375 25.035156 -33.632812 27.671875 -32.15625 C 30.304688 -30.6875 32.390625 -28.628906 33.921875 -25.984375 C 35.460938 -23.347656 36.234375 -20.367188 36.234375 -17.046875 C 36.234375 -13.710938 35.460938 -10.722656 33.921875 -8.078125 C 32.390625 -5.441406 30.296875 -3.378906 27.640625 -1.890625 C 24.984375 -0.398438 22.070312 0.34375 18.90625 0.34375 Z M 18.90625 -8.40625 C 21.3125 -8.40625 23.207031 -9.1875 24.59375 -10.75 C 25.988281 -12.320312 26.6875 -14.421875 26.6875 -17.046875 C 26.6875 -19.734375 25.988281 -21.851562 24.59375 -23.40625 C 23.207031 -24.957031 21.3125 -25.734375 18.90625 -25.734375 C 16.476562 -25.734375 14.578125 -24.957031 13.203125 -23.40625 C 11.828125 -21.851562 11.140625 -19.734375 11.140625 -17.046875 C 11.140625 -14.390625 11.828125 -12.285156 13.203125 -10.734375 C 14.578125 -9.179688 16.476562 -8.40625 18.90625 -8.40625 Z M 18.90625 -8.40625 "/></g></g></g><g fill="#00ffff" fill-opacity="1"><g transform="translate(368.088954, 131.79999)"><g><path d="M 11.90625 -33.84375 L 11.90625 -14.203125 C 11.90625 -12.378906 12.328125 -10.972656 13.171875 -9.984375 C 14.023438 -8.992188 15.316406 -8.5 17.046875 -8.5 C 18.765625 -8.5 20.0625 -9 20.9375 -10 C 21.820312 -11.007812 22.265625 -12.410156 22.265625 -14.203125 L 22.265625 -33.84375 L 31.6875 -33.84375 L 31.6875 -14.203125 C 31.6875 -11.097656 31.03125 -8.445312 29.71875 -6.25 C 28.40625 -4.0625 26.617188 -2.414062 24.359375 -1.3125 C 22.097656 -0.207031 19.59375 0.34375 16.84375 0.34375 C 14.09375 0.34375 11.632812 -0.207031 9.46875 -1.3125 C 7.3125 -2.414062 5.617188 -4.054688 4.390625 -6.234375 C 3.160156 -8.410156 2.546875 -11.066406 2.546875 -14.203125 L 2.546875 -33.84375 Z M 11.90625 -33.84375 "/></g></g></g><g fill="#00ffff" fill-opacity="1"><g transform="translate(402.264901, 131.79999)"><g><path d="M 19.828125 0 L 13.109375 -12.484375 L 12.09375 -12.484375 L 12.09375 0 L 2.6875 0 L 2.6875 -33.84375 L 17.515625 -33.84375 C 20.234375 -33.84375 22.535156 -33.367188 24.421875 -32.421875 C 26.316406 -31.484375 27.742188 -30.1875 28.703125 -28.53125 C 29.660156 -26.882812 30.140625 -25.035156 30.140625 -22.984375 C 30.140625 -20.679688 29.507812 -18.65625 28.25 -16.90625 C 26.988281 -15.164062 25.140625 -13.929688 22.703125 -13.203125 L 30.34375 0 Z M 12.09375 -18.90625 L 16.75 -18.90625 C 18.03125 -18.90625 18.988281 -19.207031 19.625 -19.8125 C 20.269531 -20.425781 20.59375 -21.3125 20.59375 -22.46875 C 20.59375 -23.550781 20.265625 -24.40625 19.609375 -25.03125 C 18.953125 -25.65625 18 -25.96875 16.75 -25.96875 L 12.09375 -25.96875 Z M 12.09375 -18.90625 "/></g></g></g><g fill="#00ffff" fill-opacity="1"><g transform="translate(433.992842, 131.79999)"><g><path d="M 1.53125 -16.984375 C 1.53125 -20.316406 2.226562 -23.285156 3.625 -25.890625 C 5.019531 -28.503906 6.992188 -30.535156 9.546875 -31.984375 C 12.109375 -33.441406 15.054688 -34.171875 18.390625 -34.171875 C 22.609375 -34.171875 26.15625 -33.039062 29.03125 -30.78125 C 31.914062 -28.53125 33.773438 -25.46875 34.609375 -21.59375 L 24.484375 -21.59375 C 23.867188 -22.875 23.023438 -23.847656 21.953125 -24.515625 C 20.890625 -25.191406 19.648438 -25.53125 18.234375 -25.53125 C 16.054688 -25.53125 14.320312 -24.753906 13.03125 -23.203125 C 11.738281 -21.648438 11.09375 -19.578125 11.09375 -16.984375 C 11.09375 -14.367188 11.738281 -12.285156 13.03125 -10.734375 C 14.320312 -9.179688 16.054688 -8.40625 18.234375 -8.40625 C 19.648438 -8.40625 20.890625 -8.738281 21.953125 -9.40625 C 23.023438 -10.082031 23.867188 -11.0625 24.484375 -12.34375 L 34.609375 -12.34375 C 33.773438 -8.46875 31.914062 -5.398438 29.03125 -3.140625 C 26.15625 -0.890625 22.609375 0.234375 18.390625 0.234375 C 15.054688 0.234375 12.109375 -0.488281 9.546875 -1.9375 C 6.992188 -3.394531 5.019531 -5.425781 3.625 -8.03125 C 2.226562 -10.644531 1.53125 -13.628906 1.53125 -16.984375 Z M 1.53125 -16.984375 "/></g></g></g><g fill="#00ffff" fill-opacity="1"><g transform="translate(470.376789, 131.79999)"><g><path d="M 12.09375 -26.296875 L 12.09375 -20.78125 L 22.890625 -20.78125 L 22.890625 -13.625 L 12.09375 -13.625 L 12.09375 -7.53125 L 24.34375 -7.53125 L 24.34375 0 L 2.6875 0 L 2.6875 -33.84375 L 24.34375 -33.84375 L 24.34375 -26.296875 Z M 12.09375 -26.296875 "/></g></g></g><g fill="#ffffff" fill-opacity="1"><g transform="translate(160.957304, 131.79999)"><g><path d="M 18.90625 0.34375 C 15.738281 0.34375 12.828125 -0.398438 10.171875 -1.890625 C 7.515625 -3.378906 5.410156 -5.441406 3.859375 -8.078125 C 2.304688 -10.722656 1.53125 -13.710938 1.53125 -17.046875 C 1.53125 -20.367188 2.304688 -23.347656 3.859375 -25.984375 C 5.410156 -28.628906 7.515625 -30.6875 10.171875 -32.15625 C 12.828125 -33.632812 15.738281 -34.375 18.90625 -34.375 C 22.113281 -34.375 25.035156 -33.632812 27.671875 -32.15625 C 30.304688 -30.6875 32.390625 -28.628906 33.921875 -25.984375 C 35.460938 -23.347656 36.234375 -20.367188 36.234375 -17.046875 C 36.234375 -13.710938 35.460938 -10.722656 33.921875 -8.078125 C 32.390625 -5.441406 30.296875 -3.378906 27.640625 -1.890625 C 24.984375 -0.398438 22.070312 0.34375 18.90625 0.34375 Z M 18.90625 -8.40625 C 21.3125 -8.40625 23.207031 -9.1875 24.59375 -10.75 C 25.988281 -12.320312 26.6875 -14.421875 26.6875 -17.046875 C 26.6875 -19.734375 25.988281 -21.851562 24.59375 -23.40625 C 23.207031 -24.957031 21.3125 -25.734375 18.90625 -25.734375 C 16.476562 -25.734375 14.578125 -24.957031 13.203125 -23.40625 C 11.828125 -21.851562 11.140625 -19.734375 11.140625 -17.046875 C 11.140625 -14.390625 11.828125 -12.285156 13.203125 -10.734375 C 14.578125 -9.179688 16.476562 -8.40625 18.90625 -8.40625 Z M 18.90625 -8.40625 "/></g></g></g><g fill="#ffffff" fill-opacity="1"><g transform="translate(198.733242, 131.79999)"><g><path d="M 29.421875 -22.5625 C 29.421875 -20.507812 28.945312 -18.644531 28 -16.96875 C 27.0625 -15.289062 25.640625 -13.945312 23.734375 -12.9375 C 21.828125 -11.925781 19.5 -11.421875 16.75 -11.421875 L 12.09375 -11.421875 L 12.09375 0 L 2.6875 0 L 2.6875 -33.84375 L 16.75 -33.84375 C 19.46875 -33.84375 21.78125 -33.359375 23.6875 -32.390625 C 25.59375 -31.429688 27.023438 -30.101562 27.984375 -28.40625 C 28.941406 -26.71875 29.421875 -24.769531 29.421875 -22.5625 Z M 15.84375 -18.90625 C 18.5 -18.90625 19.828125 -20.125 19.828125 -22.5625 C 19.828125 -25.019531 18.5 -26.25 15.84375 -26.25 L 12.09375 -26.25 L 12.09375 -18.90625 Z M 15.84375 -18.90625 "/></g></g></g><g fill="#ffffff" fill-opacity="1"><g transform="translate(229.261191, 131.79999)"><g><path d="M 12.09375 -26.296875 L 12.09375 -20.78125 L 22.890625 -20.78125 L 22.890625 -13.625 L 12.09375 -13.625 L 12.09375 -7.53125 L 24.34375 -7.53125 L 24.34375 0 L 2.6875 0 L 2.6875 -33.84375 L 24.34375 -33.84375 L 24.34375 -26.296875 Z M 12.09375 -26.296875 "/></g></g></g><g fill="#ffffff" fill-opacity="1"><g transform="translate(255.565148, 131.79999)"><g><path d="M 34.03125 0 L 24.625 0 L 12.09375 -18.90625 L 12.09375 0 L 2.6875 0 L 2.6875 -33.84375 L 12.09375 -33.84375 L 24.625 -14.6875 L 24.625 -33.84375 L 34.03125 -33.84375 Z M 34.03125 0 "/></g></g></g><g fill="#ffffff" fill-opacity="1"><g transform="translate(292.285082, 131.79999)"><g/></g></g><g fill="#ffffff" fill-opacity="1"><g transform="translate(301.453069, 131.79999)"><g><path d="M 15.453125 0.34375 C 11.515625 0.34375 8.28125 -0.59375 5.75 -2.46875 C 3.226562 -4.34375 1.875 -7.023438 1.6875 -10.515625 L 11.71875 -10.515625 C 11.8125 -9.328125 12.160156 -8.460938 12.765625 -7.921875 C 13.378906 -7.378906 14.164062 -7.109375 15.125 -7.109375 C 15.988281 -7.109375 16.695312 -7.320312 17.25 -7.75 C 17.8125 -8.1875 18.09375 -8.785156 18.09375 -9.546875 C 18.09375 -10.546875 17.628906 -11.316406 16.703125 -11.859375 C 15.773438 -12.398438 14.269531 -13.007812 12.1875 -13.6875 C 9.976562 -14.414062 8.191406 -15.125 6.828125 -15.8125 C 5.472656 -16.5 4.289062 -17.503906 3.28125 -18.828125 C 2.28125 -20.160156 1.78125 -21.898438 1.78125 -24.046875 C 1.78125 -26.222656 2.320312 -28.085938 3.40625 -29.640625 C 4.5 -31.191406 6.003906 -32.367188 7.921875 -33.171875 C 9.835938 -33.972656 12.015625 -34.375 14.453125 -34.375 C 18.390625 -34.375 21.53125 -33.453125 23.875 -31.609375 C 26.226562 -29.765625 27.484375 -27.179688 27.640625 -23.859375 L 17.421875 -23.859375 C 17.390625 -24.878906 17.078125 -25.644531 16.484375 -26.15625 C 15.890625 -26.664062 15.128906 -26.921875 14.203125 -26.921875 C 13.503906 -26.921875 12.929688 -26.710938 12.484375 -26.296875 C 12.035156 -25.890625 11.8125 -25.300781 11.8125 -24.53125 C 11.8125 -23.882812 12.054688 -23.328125 12.546875 -22.859375 C 13.046875 -22.398438 13.660156 -22.003906 14.390625 -21.671875 C 15.128906 -21.335938 16.21875 -20.914062 17.65625 -20.40625 C 19.800781 -19.664062 21.570312 -18.9375 22.96875 -18.21875 C 24.363281 -17.5 25.5625 -16.488281 26.5625 -15.1875 C 27.570312 -13.894531 28.078125 -12.253906 28.078125 -10.265625 C 28.078125 -8.253906 27.570312 -6.445312 26.5625 -4.84375 C 25.5625 -3.25 24.109375 -1.984375 22.203125 -1.046875 C 20.296875 -0.117188 18.046875 0.34375 15.453125 0.34375 Z M 15.453125 0.34375 "/></g></g></g><g fill="#ffffff" fill-opacity="1"><g transform="translate(331.213016, 131.79999)"><g><path d="M 18.90625 0.34375 C 15.738281 0.34375 12.828125 -0.398438 10.171875 -1.890625 C 7.515625 -3.378906 5.410156 -5.441406 3.859375 -8.078125 C 2.304688 -10.722656 1.53125 -13.710938 1.53125 -17.046875 C 1.53125 -20.367188 2.304688 -23.347656 3.859375 -25.984375 C 5.410156 -28.628906 7.515625 -30.6875 10.171875 -32.15625 C 12.828125 -33.632812 15.738281 -34.375 18.90625 -34.375 C 22.113281 -34.375 25.035156 -33.632812 27.671875 -32.15625 C 30.304688 -30.6875 32.390625 -28.628906 33.921875 -25.984375 C 35.460938 -23.347656 36.234375 -20.367188 36.234375 -17.046875 C 36.234375 -13.710938 35.460938 -10.722656 33.921875 -8.078125 C 32.390625 -5.441406 30.296875 -3.378906 27.640625 -1.890625 C 24.984375 -0.398438 22.070312 0.34375 18.90625 0.34375 Z M 18.90625 -8.40625 C 21.3125 -8.40625 23.207031 -9.1875 24.59375 -10.75 C 25.988281 -12.320312 26.6875 -14.421875 26.6875 -17.046875 C 26.6875 -19.734375 25.988281 -21.851562 24.59375 -23.40625 C 23.207031 -24.957031 21.3125 -25.734375 18.90625 -25.734375 C 16.476562 -25.734375 14.578125 -24.957031 13.203125 -23.40625 C 11.828125 -21.851562 11.140625 -19.734375 11.140625 -17.046875 C 11.140625 -14.390625 11.828125 -12.285156 13.203125 -10.734375 C 14.578125 -9.179688 16.476562 -8.40625 18.90625 -8.40625 Z M 18.90625 -8.40625 "/></g></g></g><g fill="#ffffff" fill-opacity="1"><g transform="translate(368.988954, 131.79999)"><g><path d="M 11.90625 -33.84375 L 11.90625 -14.203125 C 11.90625 -12.378906 12.328125 -10.972656 13.171875 -9.984375 C 14.023438 -8.992188 15.316406 -8.5 17.046875 -8.5 C 18.765625 -8.5 20.0625 -9 20.9375 -10 C 21.820312 -11.007812 22.265625 -12.410156 22.265625 -14.203125 L 22.265625 -33.84375 L 31.6875 -33.84375 L 31.6875 -14.203125 C 31.6875 -11.097656 31.03125 -8.445312 29.71875 -6.25 C 28.40625 -4.0625 26.617188 -2.414062 24.359375 -1.3125 C 22.097656 -0.207031 19.59375 0.34375 16.84375 0.34375 C 14.09375 0.34375 11.632812 -0.207031 9.46875 -1.3125 C 7.3125 -2.414062 5.617188 -4.054688 4.390625 -6.234375 C 3.160156 -8.410156 2.546875 -11.066406 2.546875 -14.203125 L 2.546875 -33.84375 Z M 11.90625 -33.84375 "/></g></g></g><g fill="#ffffff" fill-opacity="1"><g transform="translate(403.164901, 131.79999)"><g><path d="M 19.828125 0 L 13.109375 -12.484375 L 12.09375 -12.484375 L 12.09375 0 L 2.6875 0 L 2.6875 -33.84375 L 17.515625 -33.84375 C 20.234375 -33.84375 22.535156 -33.367188 24.421875 -32.421875 C 26.316406 -31.484375 27.742188 -30.1875 28.703125 -28.53125 C 29.660156 -26.882812 30.140625 -25.035156 30.140625 -22.984375 C 30.140625 -20.679688 29.507812 -18.65625 28.25 -16.90625 C 26.988281 -15.164062 25.140625 -13.929688 22.703125 -13.203125 L 30.34375 0 Z M 12.09375 -18.90625 L 16.75 -18.90625 C 18.03125 -18.90625 18.988281 -19.207031 19.625 -19.8125 C 20.269531 -20.425781 20.59375 -21.3125 20.59375 -22.46875 C 20.59375 -23.550781 20.265625 -24.40625 19.609375 -25.03125 C 18.953125 -25.65625 18 -25.96875 16.75 -25.96875 L 12.09375 -25.96875 Z M 12.09375 -18.90625 "/></g></g></g><g fill="#ffffff" fill-opacity="1"><g transform="translate(434.892842, 131.79999)"><g><path d="M 1.53125 -16.984375 C 1.53125 -20.316406 2.226562 -23.285156 3.625 -25.890625 C 5.019531 -28.503906 6.992188 -30.535156 9.546875 -31.984375 C 12.109375 -33.441406 15.054688 -34.171875 18.390625 -34.171875 C 22.609375 -34.171875 26.15625 -33.039062 29.03125 -30.78125 C 31.914062 -28.53125 33.773438 -25.46875 34.609375 -21.59375 L 24.484375 -21.59375 C 23.867188 -22.875 23.023438 -23.847656 21.953125 -24.515625 C 20.890625 -25.191406 19.648438 -25.53125 18.234375 -25.53125 C 16.054688 -25.53125 14.320312 -24.753906 13.03125 -23.203125 C 11.738281 -21.648438 11.09375 -19.578125 11.09375 -16.984375 C 11.09375 -14.367188 11.738281 -12.285156 13.03125 -10.734375 C 14.320312 -9.179688 16.054688 -8.40625 18.234375 -8.40625 C 19.648438 -8.40625 20.890625 -8.738281 21.953125 -9.40625 C 23.023438 -10.082031 23.867188 -11.0625 24.484375 -12.34375 L 34.609375 -12.34375 C 33.773438 -8.46875 31.914062 -5.398438 29.03125 -3.140625 C 26.15625 -0.890625 22.609375 0.234375 18.390625 0.234375 C 15.054688 0.234375 12.109375 -0.488281 9.546875 -1.9375 C 6.992188 -3.394531 5.019531 -5.425781 3.625 -8.03125 C 2.226562 -10.644531 1.53125 -13.628906 1.53125 -16.984375 Z M 1.53125 -16.984375 "/></g></g></g><g fill="#ffffff" fill-opacity="1"><g transform="translate(471.276789, 131.79999)"><g><path d="M 12.09375 -26.296875 L 12.09375 -20.78125 L 22.890625 -20.78125 L 22.890625 -13.625 L 12.09375 -13.625 L 12.09375 -7.53125 L 24.34375 -7.53125 L 24.34375 0 L 2.6875 0 L 2.6875 -33.84375 L 24.34375 -33.84375 L 24.34375 -26.296875 Z M 12.09375 -26.296875 "/></g></g></g></svg>